<svg width="20" height="17" viewBox="0 0 20 17" fill="none" xmlns="http://www.w3.org/2000/svg">
<path fill-rule="evenodd" clip-rule="evenodd" d="M0 1C0 0.447715 0.447715 0 1 0H13C13.5523 0 14 0.447715 14 1V2.15288L17.4932 2.73508C18.9398 2.97617 20 4.22774 20 5.69426V14C20 15.6569 18.6569 17 17 17C16.1115 17 15.3132 16.6137 14.7639 16H5.23611C4.68679 16.6137 3.8885 17 3 17C1.34315 17 0 15.6569 0 14V1ZM12 2V11H3C2.64936 11 2.31278 11.0602 2 11.1707V2H12ZM3 15C2.44772 15 2 14.5523 2 14C2 13.4477 2.44772 13 3 13C3.55228 13 4 13.4477 4 14C4 14.5523 3.55228 15 3 15ZM18 7V5.69426C18 5.20542 17.6466 4.78823 17.1644 4.70787L14 4.18047V11H17C17.3506 11 17.6872 11.0602 18 11.1707V9H16V7H18ZM18 14C18 13.4477 17.5523 13 17 13C16.4477 13 16 13.4477 16 14C16 14.5523 16.4477 15 17 15C17.5523 15 18 14.5523 18 14ZM6 14C6 13.6494 5.93985 13.3128 5.82929 13H14.1707C14.0602 13.3128 14 13.6494 14 14H6Z" fill="#132553"/>
</svg>
