<svg width="23" height="20" viewBox="0 0 23 20" fill="none" xmlns="http://www.w3.org/2000/svg">
<path fill-rule="evenodd" clip-rule="evenodd" d="M2.38197 0H0V2H2.38197L3.06697 3.37002L5.66163 12.0189C4.16406 12.187 3 13.4575 3 15C3 16.3567 3.90057 17.503 5.13653 17.8739C5.04888 18.0644 5 18.2765 5 18.5C5 19.3284 5.67157 20 6.5 20C7.32843 20 8 19.3284 8 18.5C8 18.3247 7.96992 18.1564 7.91465 18H17.0854C17.0301 18.1564 17 18.3247 17 18.5C17 19.3284 17.6716 20 18.5 20C19.3284 20 20 19.3284 20 18.5C20 18.3247 19.9699 18.1564 19.9146 18H21V16H6C5.44772 16 5 15.5523 5 15C5 14.4477 5.44771 14 5.99999 14H18.3603C19.7902 14 21.0217 12.9907 21.3021 11.5883L22.7414 4.39223C22.9889 3.15465 22.0423 2 20.7802 2H4.61803L4.17082 1.10557C3.83204 0.428004 3.13951 0 2.38197 0ZM7.74403 12L5.34403 4H20.7802L19.341 11.1961C19.2475 11.6635 18.837 12 18.3603 12H7.74403Z" fill="#132553"/>
</svg>
