<svg width="24" height="24" viewBox="0 0 24 24" fill="none" xmlns="http://www.w3.org/2000/svg">
<path d="M12.3297 0.82768C12.1708 0.595851 11.8287 0.595851 11.6698 0.82768L10.7019 2.24L9.05959 2.72412C8.79001 2.80358 8.68429 3.12897 8.85567 3.35172L9.89976 4.70869L9.85269 6.42021C9.84496 6.70116 10.1218 6.90226 10.3866 6.80809L11.9998 6.23443L13.613 6.80809C13.8778 6.90226 14.1546 6.70116 14.1468 6.42021L14.0998 4.70869L15.1438 3.35172C15.3152 3.12897 15.2095 2.80358 14.9399 2.72412L13.2976 2.24L12.3297 0.82768Z" fill="#132553"/>
<path d="M4.32971 4.32768C4.17083 4.09585 3.82869 4.09585 3.66981 4.32768L2.70189 5.74L1.05959 6.22412C0.790012 6.30358 0.684288 6.62897 0.855673 6.85172L1.89976 8.20869L1.85269 9.92021C1.84496 10.2012 2.12175 10.4023 2.38656 10.3081L3.99976 9.73443L5.61297 10.3081C5.87777 10.4023 6.15456 10.2012 6.14683 9.92021L6.09976 8.20869L7.14385 6.85172C7.31523 6.62897 7.20951 6.30358 6.93993 6.22412L5.29763 5.74L4.32971 4.32768Z" fill="#132553"/>
<path d="M19.6698 4.32768C19.8287 4.09585 20.1708 4.09585 20.3297 4.32768L21.2976 5.74L22.9399 6.22412C23.2095 6.30358 23.3152 6.62897 23.1438 6.85172L22.0998 8.20869L22.1468 9.92021C22.1546 10.2012 21.8778 10.4023 21.613 10.3081L19.9998 9.73443L18.3866 10.3081C18.1218 10.4023 17.845 10.2012 17.8527 9.92021L17.8998 8.20869L16.8557 6.85172C16.6843 6.62897 16.79 6.30358 17.0596 6.22412L18.7019 5.74L19.6698 4.32768Z" fill="#132553"/>
<path fill-rule="evenodd" clip-rule="evenodd" d="M8.36898 10.5137C9.41661 9.75367 10.693 9.34625 12 9.34625C13.307 9.34625 14.5834 9.75367 15.631 10.5137C16.6795 11.2743 17.4436 12.3488 17.7917 13.5773C18.1402 14.8069 18.0492 16.111 17.5354 17.2839C17.1084 18.2583 16.405 19.1357 15.5 19.7654L15.5 21.3463C15.5 21.6806 15.3329 21.9928 15.0547 22.1783L13.5547 23.1783C13.3904 23.2878 13.1974 23.3463 13 23.3463H11C10.8026 23.3463 10.6096 23.2878 10.4453 23.1783L8.9453 22.1783C8.6671 21.9928 8.5 21.6806 8.5 21.3463L8.5 19.7654C7.59502 19.1357 6.89157 18.2583 6.46465 17.2839C5.95083 16.111 5.85981 14.8069 6.20827 13.5773C6.55645 12.3488 7.3205 11.2743 8.36898 10.5137ZM12 11.3463C11.1057 11.3463 10.2422 11.6256 9.54341 12.1326C8.84545 12.6389 8.35404 13.3409 8.13248 14.1227C7.91119 14.9035 7.96797 15.7313 8.29656 16.4813C8.63332 17.2499 9.22966 17.923 9.97913 18.3321L10.5 18.6165L10.5 20.8111L11.3028 21.3463H12.6972L13.5 20.8111L13.5 18.6165L14.0209 18.3321C14.7703 17.923 15.3667 17.2499 15.7034 16.4813C16.032 15.7313 16.0888 14.9035 15.8675 14.1227C15.646 13.3409 15.1546 12.6389 14.4566 12.1326C13.7578 11.6256 12.8943 11.3463 12 11.3463Z" fill="#132553"/>
</svg>
