<svg width="20" height="20" viewBox="0 0 20 20" fill="none" xmlns="http://www.w3.org/2000/svg">
<path fill-rule="evenodd" clip-rule="evenodd" d="M2.44721 0.105574C2.13723 -0.0494204 1.76909 -0.0328564 1.47427 0.14935C1.17945 0.331557 1 0.653423 1 1V10C0.447715 10 0 10.4477 0 11V19C0 19.5523 0.447715 20 1 20H7C7.55228 20 8 19.5523 8 19V11C8 10.4477 7.55228 10 7 10V3C7 2.62123 6.786 2.27497 6.44721 2.10557L2.44721 0.105574ZM5 10V8H3V10H5ZM2 12V18H6V12H2ZM3 6V2.61804L5 3.61804V6H3Z" fill="#132553"/>
<path fill-rule="evenodd" clip-rule="evenodd" d="M9.26814 0.318548C9.45731 0.115388 9.72241 3.00741e-09 10 3.00741e-09H19C19.2776 3.00741e-09 19.5427 0.115388 19.7319 0.318548C19.921 0.521709 20.0172 0.794359 19.9975 1.07125L18.9975 15.0712C18.9601 15.5946 18.5246 16 18 16L18 19C18 19.5523 17.5523 20 17 20H12C11.4477 20 11 19.5523 11 19L11 16C10.4754 16 10.0399 15.5946 10.0025 15.0712L9.00254 1.07125C8.98277 0.794359 9.07897 0.521709 9.26814 0.318548ZM13 16H16V18H13V16ZM17.0689 14H11.9311L11.074 2H17.926L17.0689 14Z" fill="#132553"/>
</svg>
