<svg width="20" height="20" viewBox="0 0 20 20" fill="none" xmlns="http://www.w3.org/2000/svg">
<path fill-rule="evenodd" clip-rule="evenodd" d="M13 1V6C13 6.55229 12.5523 7 12 7H10V17C10 18.6569 8.65685 20 7 20C5.34315 20 4 18.6569 4 17V7H1C0.447715 7 0 6.55229 0 6V4C0 3.73478 0.105357 3.48043 0.292893 3.29289L3.29289 0.292893C3.48043 0.105357 3.73478 0 4 0H12C12.5523 0 13 0.447716 13 1ZM6 7H8V17C8 17.5523 7.55228 18 7 18C6.44772 18 6 17.5523 6 17V7ZM11 5L2 5V4.41421L4.41421 2L11 2V5Z" fill="#132553"/>
<path fill-rule="evenodd" clip-rule="evenodd" d="M15 9C14.4477 9 14 9.44771 14 10V17C14 18.6569 15.3431 20 17 20C18.6569 20 20 18.6569 20 17V10C20 9.44771 19.5523 9 19 9H18V3H19V1H18V0H16V1H15V3H16V9H15ZM16 17V11H18V17C18 17.5523 17.5523 18 17 18C16.4477 18 16 17.5523 16 17Z" fill="#132553"/>
</svg>
