<svg width="18" height="19" viewBox="0 0 18 19" fill="none" xmlns="http://www.w3.org/2000/svg">
<path fill-rule="evenodd" clip-rule="evenodd" d="M0 0V2H3.46482L4.79815 4H0V6H18V4C18 3.80258 17.9416 3.60957 17.8321 3.4453L15.8321 0.4453C15.6466 0.167101 15.3344 0 15 0H0ZM10.1315 2H5.86852L6.83205 3.4453C6.94156 3.60957 7 3.80258 7 4H9C9 3.80258 9.05844 3.60957 9.16795 3.4453L10.1315 2ZM12.5352 2L11.2018 4H15.7982L14.4648 2H12.5352Z" fill="#132553"/>
<path d="M10 10H9V8H13V10H12V11.5359C12.0754 11.5794 12.1496 11.6255 12.2223 11.6741C12.8801 12.1136 13.3928 12.7384 13.6955 13.4693C13.9983 14.2002 14.0775 15.0044 13.9231 15.7804C13.7688 16.5563 13.3878 17.269 12.8284 17.8284C12.269 18.3878 11.5563 18.7688 10.7804 18.9231C10.0044 19.0775 9.20017 18.9983 8.46926 18.6955C7.73836 18.3928 7.11365 17.8801 6.67412 17.2223C6.23459 16.5645 6 15.7911 6 15H8C8 15.3956 8.1173 15.7822 8.33706 16.1111C8.55682 16.44 8.86918 16.6964 9.23463 16.8478C9.60008 16.9991 10.0022 17.0387 10.3902 16.9616C10.7781 16.8844 11.1345 16.6939 11.4142 16.4142C11.6939 16.1345 11.8844 15.7781 11.9616 15.3902C12.0387 15.0022 11.9991 14.6001 11.8478 14.2346C11.6964 13.8692 11.44 13.5568 11.1111 13.3371C10.7822 13.1173 10.3956 13 10 13L10 10Z" fill="#132553"/>
</svg>
