<svg width="24" height="24" viewBox="0 0 24 24" fill="none" xmlns="http://www.w3.org/2000/svg">
<path fill-rule="evenodd" clip-rule="evenodd" d="M12 2C12.2652 2 12.5196 2.10536 12.7071 2.29289L14.0503 3.63604C14.1352 3.72095 14.218 3.80715 14.2988 3.89457L17.7575 3.02992C18.2644 2.90318 18.7834 3.18811 18.9487 3.68383L19.7207 6H21C21.5523 6 22 6.44772 22 7V8.91878C22 13.8325 18.3925 18 13.7269 18H12.9304C12.521 20.8265 10.3976 22 9 22V20C9.37884 20 10.5485 19.6046 10.8995 18H10.2731C5.60749 18 2 13.8325 2 8.91878V7C2 6.44772 2.44772 6 3 6H4.27927L5.05133 3.68383C5.21657 3.18811 5.73561 2.90318 6.24255 3.02992L9.70115 3.89457C9.78197 3.80715 9.86484 3.72095 9.94975 3.63604L11.2929 2.29289C11.4804 2.10536 11.7348 2 12 2ZM16.0647 6.70773C15.9218 6.3436 15.7543 5.98692 15.5622 5.64028L17.3441 5.1948L17.6694 6.1705C17.1118 6.29068 16.5748 6.47216 16.0647 6.70773ZM7.93533 6.70773C7.42519 6.47216 6.88823 6.29068 6.33063 6.1705L6.65586 5.1948L8.43779 5.64028C8.24572 5.98692 8.07822 6.3436 7.93533 6.70773ZM7.41059 8.67981C6.59382 8.24199 5.6843 8 4.7269 8H4V8.91878C4 12.6469 6.50779 15.5602 9.56469 15.9545C7.75224 13.904 7.03511 11.2254 7.41059 8.67981ZM14.4353 15.9545C16.2478 13.904 16.9649 11.2254 16.5894 8.67981C17.4062 8.24199 18.3157 8 19.2731 8H20V8.91878C20 12.6469 17.4922 15.5602 14.4353 15.9545ZM12 15.5858L11.364 14.9497C9.59127 13.1771 8.96694 10.6899 9.49526 8.41129C9.78072 7.18014 10.4027 6.01154 11.364 5.05025L12 4.41421L12.636 5.05025C13.5973 6.01153 14.2193 7.18014 14.5047 8.41129C15.0331 10.6899 14.4087 13.1771 12.636 14.9497L12 15.5858Z" fill="#132553"/>
</svg>
