<svg width="24" height="21" viewBox="0 0 24 21" fill="none" xmlns="http://www.w3.org/2000/svg">
<path d="M13 2V0H11V2H13Z" fill="#132553"/>
<path d="M8 19H11V6.0743C9.7584 6.26231 8.79444 6.77917 8.1 7.3C7.66308 7.62769 7.33662 7.95463 7.12241 8.19561C7.01565 8.31572 6.93785 8.41326 6.88918 8.47714C6.86488 8.50903 6.84794 8.5324 6.83839 8.54583L6.82964 8.5583L6.53518 9H2V7H5.51198C5.54773 6.95785 5.58626 6.91338 5.62759 6.86689C5.91338 6.54537 6.33692 6.12231 6.9 5.7C8.02917 4.85312 9.7345 4 12 4C14.2655 4 15.9708 4.85312 17.1 5.7C17.6631 6.12231 18.0866 6.54537 18.3724 6.86689C18.4137 6.91338 18.4523 6.95785 18.488 7H22V9H17.4648L17.1706 8.55858L17.1616 8.54583C17.1521 8.5324 17.1351 8.50903 17.1108 8.47714C17.0621 8.41326 16.9844 8.31572 16.8776 8.19561C16.6634 7.95463 16.3369 7.62769 15.9 7.3C15.2056 6.77917 14.2416 6.26232 13 6.0743V19H16V21H8V19Z" fill="#132553"/>
<path fill-rule="evenodd" clip-rule="evenodd" d="M16 11C15.4477 11 15 11.4477 15 12C15 12.6394 15.1101 13.275 15.3263 13.8715C15.5425 14.468 15.8621 15.0179 16.2725 15.4869C16.6832 15.9562 17.178 16.3367 17.7327 16.5994C18.2881 16.8622 18.889 17 19.5 17C20.111 17 20.7119 16.8622 21.2673 16.5994C21.822 16.3367 22.3168 15.9562 22.7274 15.4869C23.1379 15.0179 23.4575 14.468 23.6737 13.8715C23.8899 13.275 24 12.6394 24 12C24 11.4477 23.5523 11 23 11H16ZM17.2066 13.19C17.1839 13.1275 17.1631 13.0641 17.144 13H21.856C21.8369 13.0641 21.8161 13.1275 21.7934 13.19C21.6578 13.5641 21.4619 13.8961 21.2223 14.1699C20.9829 14.4435 20.706 14.6523 20.4115 14.7917C20.1176 14.9308 19.8083 15 19.5 15C19.1917 15 18.8824 14.9308 18.5885 14.7917C18.294 14.6523 18.0171 14.4435 17.7777 14.1699C17.5381 13.8961 17.3422 13.5641 17.2066 13.19Z" fill="#132553"/>
<path fill-rule="evenodd" clip-rule="evenodd" d="M0 12C0 11.4477 0.447715 11 1 11H8C8.55228 11 9 11.4477 9 12C9 12.6394 8.88992 13.275 8.67373 13.8715C8.45753 14.468 8.13787 15.0179 7.72745 15.4869C7.31682 15.9562 6.82203 16.3367 6.26726 16.5994C5.71193 16.8622 5.11095 17 4.5 17C3.88904 17 3.28807 16.8622 2.73274 16.5994C2.17797 16.3367 1.68318 15.9562 1.27255 15.4869C0.86213 15.0179 0.542464 14.468 0.326266 13.8715C0.110077 13.275 0 12.6394 0 12ZM2.14405 13C2.16307 13.0641 2.18392 13.1275 2.20658 13.19C2.34216 13.5641 2.53811 13.8961 2.7777 14.1699C3.01708 14.4435 3.29397 14.6523 3.58847 14.7917C3.88242 14.9308 4.1917 15 4.5 15C4.8083 15 5.11758 14.9308 5.41153 14.7917C5.70603 14.6523 5.98292 14.4435 6.2223 14.1699C6.46189 13.8961 6.65784 13.5641 6.79342 13.19C6.81608 13.1275 6.83693 13.0641 6.85595 13H2.14405Z" fill="#132553"/>
</svg>
