<svg width="16" height="19" viewBox="0 0 16 19" fill="none" xmlns="http://www.w3.org/2000/svg">
<path fill-rule="evenodd" clip-rule="evenodd" d="M0 1C0 0.447715 0.447715 0 1 0H15C15.5523 0 16 0.447715 16 1V18C16 18.4045 15.7564 18.7691 15.3827 18.9239C15.009 19.0787 14.5789 18.9931 14.2929 18.7071L8 13.4142L1.70711 18.7071C1.42111 18.9931 0.990991 19.0787 0.617317 18.9239C0.243642 18.7691 0 18.4045 0 18V1ZM2 2V15.5858L7.29289 11.2929C7.68342 10.9024 8.31658 10.9024 8.70711 11.2929L14 15.5858V2H2Z" fill="#193478"/>
</svg>
